<?xml version="1.0" encoding="UTF-8"?>
<svg xmlns="http://www.w3.org/2000/svg" xmlns:xlink="http://www.w3.org/1999/xlink" width="512px" height="353px" viewBox="0 0 511 353" version="1.1">
<defs>
<linearGradient id="linear0" gradientUnits="userSpaceOnUse" x1="15" y1="15" x2="15" y2="143" gradientTransform="matrix(1.703321,0,0,1.706395,0,0)">
<stop offset="0" style="stop-color:rgb(100%,80%,33.333333%);stop-opacity:1;"/>
<stop offset="0.2" style="stop-color:rgb(100%,80%,0%);stop-opacity:1;"/>
<stop offset="1" style="stop-color:rgb(100%,53.333333%,0%);stop-opacity:1;"/>
</linearGradient>
</defs>
<g id="surface1">
<path style=" stroke:none;fill-rule:nonzero;fill:rgb(20%,20%,20%);fill-opacity:1;" d="M 20.441406 0 L 490.554688 0 C 501.84375 0 510.996094 9.167969 510.996094 20.476562 L 510.996094 329.335938 C 510.996094 340.644531 501.84375 349.8125 490.554688 349.8125 L 20.441406 349.8125 C 9.152344 349.8125 0 340.644531 0 329.335938 L 0 20.476562 C 0 9.167969 9.152344 0 20.441406 0 Z M 20.441406 0 "/>
<path style=" stroke:none;fill-rule:nonzero;fill:url(#linear0);" d="M 39.175781 25.597656 L 471.820312 25.597656 C 479.34375 25.597656 485.445312 31.707031 485.445312 39.246094 L 485.445312 230.363281 C 485.445312 237.902344 479.34375 244.015625 471.820312 244.015625 L 39.175781 244.015625 C 31.652344 244.015625 25.550781 237.902344 25.550781 230.363281 L 25.550781 39.246094 C 25.550781 31.707031 31.652344 25.597656 39.175781 25.597656 Z M 39.175781 25.597656 "/>
<path style=" stroke:none;fill-rule:nonzero;fill:rgb(20%,20%,20%);fill-opacity:1;" d="M 153.300781 122.859375 L 357.699219 122.859375 C 382.15625 122.859375 401.984375 142.722656 401.984375 167.226562 C 401.984375 191.730469 382.15625 211.59375 357.699219 211.59375 L 153.300781 211.59375 C 128.839844 211.59375 109.011719 191.730469 109.011719 167.226562 C 109.011719 142.722656 128.839844 122.859375 153.300781 122.859375 Z M 153.300781 122.859375 "/>
<path style=" stroke:none;fill-rule:nonzero;fill:rgb(80.000001%,80.000001%,80.000001%);fill-opacity:1;" d="M 185.660156 167.226562 C 185.660156 150.261719 171.933594 136.511719 155.003906 136.511719 C 138.070312 136.511719 124.34375 150.261719 124.34375 167.226562 C 124.34375 184.191406 138.070312 197.941406 155.003906 197.941406 C 171.933594 197.941406 185.660156 184.191406 185.660156 167.226562 Z M 185.660156 167.226562 "/>
<path style=" stroke:none;fill-rule:nonzero;fill:rgb(80.000001%,80.000001%,80.000001%);fill-opacity:1;" d="M 386.652344 167.226562 C 386.652344 150.261719 372.925781 136.511719 355.992188 136.511719 C 339.0625 136.511719 325.335938 150.261719 325.335938 167.226562 C 325.335938 184.191406 339.0625 197.941406 355.992188 197.941406 C 372.925781 197.941406 386.652344 184.191406 386.652344 167.226562 Z M 386.652344 167.226562 "/>
<path style=" stroke:none;fill-rule:nonzero;fill:rgb(45.09804%,45.09804%,45.09804%);fill-opacity:1;" d="M 81.757812 353.222656 L 98.792969 286.675781 C 101.839844 276.09375 108.332031 273.363281 119.234375 273.023438 C 221.433594 271.316406 289.566406 271.316406 391.765625 273.023438 C 402.664062 273.363281 408.796875 276.09375 412.203125 286.675781 L 429.238281 353.222656 Z M 81.757812 353.222656 "/>
<path style=" stroke:none;fill-rule:nonzero;fill:rgb(20%,20%,20%);fill-opacity:1;" d="M 108.160156 86.855469 C 107.195312 87.914062 104.511719 89.222656 100.105469 90.78125 C 96.015625 92.257812 93.519531 93 92.609375 93 C 88.863281 93 85.964844 91.804688 83.921875 89.414062 C 81.933594 87.140625 80.941406 84.089844 80.941406 80.269531 C 80.941406 75.035156 83.078125 70.691406 87.347656 67.230469 C 91.09375 64.160156 95.238281 62.625 99.78125 62.625 C 100.234375 62.625 100.761719 63.046875 101.363281 63.886719 C 101.976562 64.683594 102.285156 65.34375 102.285156 65.867188 C 102.285156 68.210938 101.035156 69.746094 98.535156 70.472656 C 96.992188 70.929688 94.699219 71.589844 91.65625 72.453125 C 89.15625 73.773438 87.910156 76.277344 87.910156 79.960938 C 87.910156 83.601562 89.554688 85.421875 92.847656 85.421875 C 93.8125 85.421875 94.296875 85.421875 94.296875 85.421875 C 94.910156 85.421875 95.726562 85.332031 96.75 85.148438 C 97.996094 84.886719 99.644531 84.464844 101.6875 83.886719 C 103.730469 83.273438 104.941406 82.964844 105.316406 82.964844 C 105.769531 82.964844 106.765625 83.304688 108.296875 83.988281 Z M 108.160156 86.855469 "/>
<path style=" stroke:none;fill-rule:nonzero;fill:rgb(20%,20%,20%);fill-opacity:1;" d="M 149.210938 76.789062 C 149.210938 81.566406 147.109375 85.519531 142.910156 88.648438 C 139.273438 91.265625 135.375 92.570312 131.207031 92.570312 C 127.347656 92.570312 123.9375 91.09375 120.988281 88.136719 C 118.148438 85.175781 116.730469 81.765625 116.730469 77.898438 C 116.730469 73.800781 118.511719 70.023438 122.078125 66.566406 C 125.710938 63.152344 129.570312 61.449219 133.660156 61.449219 C 137.632812 61.449219 141.210938 63.015625 144.390625 66.15625 C 147.605469 69.296875 149.210938 72.851562 149.210938 76.820312 Z M 143.417969 77.0625 C 143.417969 74.5 142.425781 72.398438 140.4375 70.746094 C 138.507812 69.039062 136.238281 68.1875 133.625 68.1875 C 133.511719 68.1875 132.605469 69.097656 130.898438 70.917969 C 129.265625 72.679688 127.878906 73.5625 126.742188 73.5625 C 126.0625 73.5625 125.609375 73.390625 125.382812 73.050781 C 124.0625 75.667969 123.40625 77.375 123.40625 78.171875 C 123.40625 80.730469 124.613281 82.664062 127.035156 83.972656 C 128.851562 84.996094 130.894531 85.507812 133.164062 85.507812 C 135.4375 85.507812 137.570312 84.882812 139.570312 83.628906 C 142.125 82.039062 143.402344 79.855469 143.402344 77.078125 Z M 143.417969 77.0625 "/>
<path style=" stroke:none;fill-rule:nonzero;fill:rgb(20%,20%,20%);fill-opacity:1;" d="M 192.132812 79.859375 C 192.132812 83.042969 191.054688 85.546875 188.898438 87.367188 C 186.855469 89.074219 184.1875 89.925781 180.894531 89.925781 C 180.097656 89.925781 178.566406 89.699219 176.292969 89.246094 C 174.136719 88.789062 172.660156 88.5625 171.863281 88.5625 C 169.480469 88.5625 168.289062 90.0625 168.289062 93.066406 C 168.289062 94.035156 168.417969 95.511719 168.679688 97.503906 C 168.90625 99.496094 169.019531 100.972656 169.019531 101.941406 C 169.019531 104.101562 168.582031 105.710938 167.707031 106.769531 C 166.074219 106.769531 164.371094 106.285156 162.597656 105.320312 C 160.941406 94.511719 160.113281 87.6875 160.113281 84.84375 C 160.113281 80.691406 161.105469 76.082031 163.09375 71.019531 C 165.785156 64.136719 169.445312 60.695312 174.078125 60.695312 C 178.28125 60.695312 182.425781 63.027344 186.511719 67.691406 C 190.261719 72.0625 192.132812 76.121094 192.132812 79.875 Z M 185.660156 80.199219 C 184.980469 77.699219 183.503906 75.195312 181.234375 72.691406 C 178.621094 69.847656 176.179688 68.425781 173.910156 68.425781 C 172.433594 68.425781 171.109375 69.679688 169.941406 72.179688 C 168.917969 74.226562 168.40625 76.082031 168.40625 77.742188 C 168.40625 78.277344 168.625 78.984375 169.054688 79.859375 C 169.542969 80.769531 170.027344 81.222656 170.503906 81.222656 C 171.75 81.222656 173.570312 81.394531 175.953125 81.734375 C 178.335938 82.078125 180.15625 82.25 181.402344 82.25 C 181.746094 82.25 182.484375 82.019531 183.617188 81.566406 C 184.753906 81.03125 185.492188 80.609375 185.832031 80.304688 Z M 185.660156 80.199219 "/>
<path style=" stroke:none;fill-rule:nonzero;fill:rgb(20%,20%,20%);fill-opacity:1;" d="M 226.542969 68.253906 C 224.15625 72.921875 222.339844 76.902344 221.089844 80.199219 C 220.976562 80.542969 220.070312 83.101562 218.367188 87.878906 C 217.910156 89.425781 217.34375 91.816406 216.664062 95.046875 C 216.09375 98.265625 215.527344 100.65625 214.960938 102.214844 C 213.824219 105.433594 212.519531 106.933594 211.042969 106.71875 C 209.453125 106.492188 208.542969 105.582031 208.316406 103.988281 C 208.316406 103.761719 208.316406 103.476562 208.316406 103.132812 C 208.316406 102.953125 208.488281 102.097656 208.828125 100.574219 C 209.960938 94.839844 210.53125 91.179688 210.53125 89.585938 C 210.53125 88.972656 210.472656 88.550781 210.359375 88.324219 C 208.769531 85.546875 206.441406 81.339844 203.375 75.695312 C 200.308594 70.042969 198.949219 65.660156 199.289062 62.554688 C 200.992188 61.007812 202.183594 60.234375 202.867188 60.234375 C 203.320312 60.234375 203.945312 60.578125 204.738281 61.257812 C 205.421875 61.941406 205.816406 62.566406 205.929688 63.136719 C 206.839844 70.191406 209.621094 76.503906 214.277344 82.078125 C 215.414062 80.03125 216.433594 77.730469 217.34375 75.183594 C 217.910156 73.589844 218.820312 71.230469 220.070312 68.101562 C 222.226562 63.027344 224.15625 60.492188 225.859375 60.492188 C 226.085938 60.492188 226.316406 60.546875 226.542969 60.664062 C 227.5625 61.003906 228.300781 62.597656 228.757812 65.441406 Z M 226.542969 68.253906 "/>
<path style=" stroke:none;fill-rule:nonzero;fill:rgb(20%,20%,20%);fill-opacity:1;" d="M 268.273438 81.90625 C 268.273438 85.09375 267.195312 87.59375 265.035156 89.414062 C 262.992188 91.121094 260.324219 91.976562 257.03125 91.976562 C 256.234375 91.976562 254.703125 91.746094 252.433594 91.292969 C 250.273438 90.835938 248.796875 90.609375 248.003906 90.609375 C 245.730469 90.609375 244.597656 92.109375 244.597656 95.113281 C 244.597656 96.082031 244.710938 97.558594 244.9375 99.550781 C 245.164062 101.542969 245.277344 103.019531 245.277344 103.988281 C 245.277344 106.148438 244.878906 107.757812 244.085938 108.816406 C 242.382812 108.816406 240.679688 108.332031 238.976562 107.367188 C 237.273438 96.558594 236.421875 89.761719 236.421875 86.976562 C 236.421875 82.824219 237.441406 78.214844 239.488281 73.152344 C 242.097656 66.269531 245.730469 62.828125 250.386719 62.828125 C 254.589844 62.828125 258.675781 65.160156 262.652344 69.824219 C 266.398438 74.195312 268.273438 78.253906 268.273438 82.007812 Z M 261.800781 82.25 C 261.117188 79.746094 259.644531 77.242188 257.371094 74.738281 C 254.761719 71.894531 252.320312 70.472656 250.046875 70.472656 C 248.570312 70.472656 247.265625 71.726562 246.128906 74.226562 C 245.109375 76.277344 244.597656 78.128906 244.597656 79.792969 C 244.597656 80.324219 244.824219 81.03125 245.277344 81.90625 C 245.730469 82.816406 246.1875 83.273438 246.640625 83.273438 C 247.890625 83.273438 249.707031 83.441406 252.089844 83.785156 C 254.476562 84.125 256.292969 84.296875 257.542969 84.296875 C 257.882812 84.296875 258.621094 84.070312 259.757812 83.613281 C 260.890625 83.078125 261.628906 82.65625 261.972656 82.351562 Z M 261.800781 82.25 "/>
<path style=" stroke:none;fill-rule:nonzero;fill:rgb(20%,20%,20%);fill-opacity:1;" d="M 310.003906 90.949219 C 310.003906 91.976562 309.664062 92.828125 308.980469 93.511719 C 308.300781 94.191406 307.507812 94.535156 306.597656 94.535156 C 304.78125 94.535156 303.078125 94.023438 301.488281 93 C 299.898438 91.941406 298.707031 90.632812 297.910156 89.074219 C 297.117188 88.960938 296.265625 89.445312 295.355469 90.523438 C 294.332031 91.84375 293.710938 92.550781 293.480469 92.640625 C 292.121094 93.253906 289.90625 93.5625 286.839844 93.5625 C 284.339844 93.5625 282.125 92.171875 280.195312 89.398438 C 278.492188 86.976562 277.640625 84.699219 277.640625 82.574219 C 277.640625 78.703125 279.570312 75.0625 283.433594 71.652344 C 287.066406 68.351562 290.871094 66.703125 294.84375 66.703125 C 295.867188 66.703125 296.832031 67.042969 297.742188 67.726562 C 298.648438 68.410156 299.101562 69.226562 299.101562 70.183594 C 299.101562 70.796875 298.875 71.425781 298.421875 72.0625 C 301.148438 73.085938 302.507812 74.695312 302.507812 76.890625 C 302.507812 77.289062 302.453125 77.886719 302.339844 78.683594 C 302.226562 79.476562 302.167969 80.074219 302.167969 80.472656 C 302.167969 80.929688 302.226562 81.269531 302.339844 81.496094 C 302.90625 82.976562 304.328125 84.910156 306.597656 87.300781 C 308.753906 89.460938 309.835938 90.710938 309.835938 91.054688 Z M 296.207031 73.714844 C 295.753906 73.714844 295.128906 73.660156 294.332031 73.546875 C 293.425781 73.363281 292.800781 73.273438 292.460938 73.273438 C 290.984375 73.273438 289.167969 74.375 287.007812 76.582031 C 284.851562 78.789062 283.773438 80.667969 283.773438 82.214844 C 283.773438 83.125 284.171875 84.148438 284.964844 85.285156 C 285.988281 86.765625 287.238281 87.503906 288.710938 87.503906 C 291.664062 87.503906 293.652344 85.855469 294.675781 82.554688 C 295.242188 79.597656 295.808594 76.664062 296.378906 73.75 Z M 296.207031 73.714844 "/>
<path style=" stroke:none;fill-rule:nonzero;fill:rgb(20%,20%,20%);fill-opacity:1;" d="M 347.136719 72.351562 C 346.683594 72.804688 345.832031 73.035156 344.582031 73.035156 C 343.558594 73.035156 342.140625 72.863281 340.324219 72.523438 C 338.394531 72.179688 336.972656 72.011719 336.066406 72.011719 C 330.726562 72.011719 327.605469 75.933594 326.695312 83.785156 C 326.355469 87.308594 326.128906 89.1875 326.015625 89.414062 C 325.5625 90.550781 324.597656 91.859375 323.121094 93.339844 L 321.246094 93.339844 C 320.453125 91.976562 319.714844 89.644531 319.03125 86.34375 C 318.351562 83.203125 318.011719 80.773438 318.011719 79.058594 C 318.011719 77.738281 318.066406 76.882812 318.179688 76.496094 C 318.40625 75.882812 318.976562 75.578125 319.882812 75.578125 C 320.222656 75.578125 320.566406 75.746094 320.90625 76.089844 C 321.359375 76.429688 321.585938 76.601562 321.585938 76.601562 C 323.746094 72.585938 325.503906 69.96875 326.867188 68.75 C 328.910156 66.816406 331.808594 65.851562 335.554688 65.851562 C 337.144531 65.851562 339.1875 66.363281 341.6875 67.386719 C 344.867188 68.707031 346.738281 70.296875 347.308594 72.164062 Z M 347.136719 72.351562 "/>
<path style=" stroke:none;fill-rule:nonzero;fill:rgb(20%,20%,20%);fill-opacity:1;" d="M 390.910156 63.410156 C 391.253906 64.320312 391.421875 65.140625 391.421875 65.867188 C 391.421875 67.984375 390.058594 69.039062 387.335938 69.039062 C 386.199219 69.039062 384.210938 68.757812 381.375 68.1875 C 378.535156 67.574219 376.605469 67.265625 375.582031 67.265625 C 374.105469 67.265625 373.253906 67.324219 373.027344 67.4375 C 372.574219 67.664062 372.347656 68.347656 372.347656 69.484375 C 372.347656 71.988281 372.6875 75.910156 373.367188 81.257812 C 374.164062 87.925781 375.070312 91.410156 376.09375 91.71875 C 375.640625 92.117188 375.410156 92.742188 375.410156 93.597656 C 374.050781 94.390625 372.574219 94.789062 370.984375 94.789062 C 369.394531 94.789062 368.257812 92.570312 367.578125 88.136719 C 367.347656 86.589844 367.066406 82.175781 366.726562 74.894531 C 366.496094 69.660156 366.042969 66.53125 365.363281 65.507812 C 365.023438 64.972656 362.582031 64.773438 358.039062 64.910156 C 356.902344 64.910156 355.992188 64.96875 355.3125 65.082031 C 354.746094 65.082031 354.574219 65.082031 354.800781 65.082031 C 353.894531 65.082031 353.210938 64.683594 352.757812 63.886719 C 352.191406 62.410156 351.90625 61.613281 351.90625 61.5 C 351.90625 59.859375 354.234375 58.722656 358.890625 58.085938 C 360.707031 57.902344 363.375 57.621094 366.894531 57.234375 C 366.894531 56.265625 366.839844 54.808594 366.726562 52.863281 C 366.726562 50.875 366.726562 49.394531 366.726562 48.425781 C 366.726562 43.480469 367.917969 41.003906 370.300781 41.003906 C 370.871094 41.003906 371.496094 41.347656 372.175781 42.027344 C 372.855469 42.710938 373.199219 43.335938 373.199219 43.90625 L 373.199219 57.386719 C 374.445312 58.75 377.285156 59.71875 381.714844 60.285156 C 386.144531 60.855469 389.152344 61.914062 390.742188 63.460938 Z M 390.910156 63.410156 "/>
<path style=" stroke:none;fill-rule:nonzero;fill:rgb(20%,20%,20%);fill-opacity:1;" d="M 427.875 68.597656 C 425.601562 73.261719 423.785156 77.242188 422.421875 80.542969 C 422.308594 80.882812 421.457031 83.441406 419.867188 88.21875 C 419.300781 89.769531 418.734375 92.15625 418.164062 95.386719 C 417.597656 98.605469 417.03125 100.996094 416.460938 102.554688 C 415.328125 105.773438 413.964844 107.273438 412.375 107.058594 C 410.785156 106.832031 409.933594 105.921875 409.820312 104.328125 C 409.707031 104.101562 409.648438 103.816406 409.648438 103.476562 C 409.648438 103.292969 409.820312 102.441406 410.160156 100.917969 C 411.410156 95.183594 412.035156 91.519531 412.035156 89.925781 C 412.035156 89.3125 411.976562 88.890625 411.863281 88.664062 C 410.273438 85.886719 407.945312 81.679688 404.878906 76.035156 C 401.8125 70.382812 400.449219 66.003906 400.792969 62.898438 C 402.382812 61.351562 403.574219 60.578125 404.367188 60.578125 C 404.824219 60.578125 405.390625 60.917969 406.070312 61.601562 C 406.753906 62.285156 407.152344 62.910156 407.265625 63.476562 C 408.285156 70.53125 411.066406 76.84375 415.609375 82.417969 C 416.746094 80.371094 417.824219 78.074219 418.847656 75.523438 C 419.414062 73.933594 420.324219 71.570312 421.570312 68.445312 C 423.617188 63.371094 425.546875 60.832031 427.363281 60.832031 C 427.589844 60.832031 427.816406 60.890625 428.042969 61.003906 C 428.953125 61.34375 429.632812 62.9375 430.089844 65.78125 Z M 427.875 68.597656 "/>
<path style=" stroke:none;fill-rule:nonzero;fill:rgb(20%,20%,20%);fill-opacity:1;" d="M 189.75 142.203125 L 173.523438 151.585938 L 177.78125 158.976562 L 194.007812 149.589844 Z M 132.21875 175.476562 L 115.996094 184.863281 L 120.253906 192.25 L 136.480469 182.867188 Z M 132.21875 175.476562 "/>
<path style=" stroke:none;fill-rule:nonzero;fill:rgb(20%,20%,20%);fill-opacity:1;" d="M 150.742188 124.566406 L 150.742188 143.335938 L 159.261719 143.335938 L 159.261719 124.566406 Z M 150.742188 191.117188 L 150.742188 209.886719 L 159.261719 209.886719 L 159.261719 191.117188 Z M 150.742188 191.117188 "/>
<path style=" stroke:none;fill-rule:nonzero;fill:rgb(20%,20%,20%);fill-opacity:1;" d="M 115.996094 149.589844 L 132.222656 158.976562 L 136.480469 151.585938 L 120.253906 142.203125 Z M 173.527344 182.867188 L 189.753906 192.25 L 194.011719 184.863281 L 177.785156 175.476562 Z M 173.527344 182.867188 "/>
<path style=" stroke:none;fill-rule:nonzero;fill:rgb(20%,20%,20%);fill-opacity:1;" d="M 398.574219 162.960938 L 379.839844 162.960938 L 379.839844 171.492188 L 398.574219 171.492188 Z M 332.144531 162.960938 L 313.410156 162.960938 L 313.410156 171.492188 L 332.144531 171.492188 Z M 332.144531 162.960938 "/>
<path style=" stroke:none;fill-rule:nonzero;fill:rgb(20%,20%,20%);fill-opacity:1;" d="M 373.597656 128.148438 L 364.230469 144.40625 L 371.605469 148.671875 L 380.972656 132.414062 Z M 340.382812 185.78125 L 331.015625 202.039062 L 338.390625 206.304688 L 347.757812 190.046875 Z M 340.382812 185.78125 "/>
<path style=" stroke:none;fill-rule:nonzero;fill:rgb(20%,20%,20%);fill-opacity:1;" d="M 331.015625 132.414062 L 340.382812 148.671875 L 347.757812 144.40625 L 338.390625 128.148438 Z M 364.230469 190.050781 L 373.597656 206.304688 L 380.972656 202.039062 L 371.605469 185.78125 Z M 364.230469 190.050781 "/>
</g>
</svg>
