<?xml version="1.0" encoding="UTF-8"?>
<svg version="1.1" viewBox="0 0 36 32" width="100%"
 height="100%" xmlns="http://www.w3.org/2000/svg" xmlns:cc="http://creativecommons.org/ns#" xmlns:dc="http://purl.org/dc/elements/1.1/" xmlns:rdf="http://www.w3.org/1999/02/22-rdf-syntax-ns#" xmlns:xlink="http://www.w3.org/1999/xlink">
 <title>Group</title>
 <defs>
  <path id="path-1" d="m2.9986 6.8227c-1.1836 4.7857 1.1978 5.8721 2.4572 6.586 0.26051 0.16324 0.50669 0.27518 0.71552 0.33141 0 0 5.8986-10.994-5.8492-13.564l-0.32215 0.060775s4.3731 1.0691 3.0566 6.3921l-0.058004 0.1937z"/>
  <linearGradient id="linearGradient-3" x1="46.562%" x2="70.134%" y1="59.245%" y2="41.254%">
   <stop stop-opacity="0" offset="0"/>
   <stop offset="1"/>
  </linearGradient>
  <path id="path-4" d="m11.25 2.3186c-0.92403 0.80085-1.8053 3.3721-1.9736 4.1672-7.4605 2.6383-9.2763 6.8355-9.2763 6.8355s4.1785-2.6781 11.25-1.7988c6.7501 0.83945 6.7501 7.675 6.7501 7.675 0.019658 0.26275 0.02925 0.52118 0.029487 0.77529 0.0058027 7.3979-7.9637 11.097-7.9637 11.097 13.974 0.71953 18.395-7.5549 18.74-8.4245-0.34543 4.1873-2.3388 6.8055-2.3388 6.8055 5.736-4.2113 7.2165-8.5305 7.2182-11.865 0.0017763-3.5497-1.6721-5.9833-1.6721-5.9833 2.842 1.1192 3.9868 3.7575 3.9868 3.7575s-1.6579-9.7136-10.184-13.791c-0.016105-0.007675-0.031737-0.01511-0.047961-0.022785-0.020132-0.0095937-0.040263-0.019067-0.060395-0.028541-2.2731-1.0673-4.4294-1.4578-6.3679-1.4578-0.36284 0-0.71787 0.013671-1.0648 0.039214-2.4795 0.18224-6.1008 1.4185-7.0249 2.2194zm1.0955 3.7475c0-0.34765 0.27841-0.62959 0.62171-0.62959 0.3433 0 0.62171 0.28193 0.62171 0.62959 0 0.34777-0.27841 0.62959-0.62171 0.62959-0.3433 0-0.62171-0.28181-0.62171-0.62959"/>
  <linearGradient id="linearGradient-6" x1="52.05%" x2="50%" y1="38.971%" y2="85.166%">
   <stop stop-color="#fff" offset="0"/>
   <stop stop-color="#A5A5A5" offset="1"/>
  </linearGradient>
  <path id="path-7" d="m9.2763 6.4858c-7.4605 2.6383-9.2763 6.8355-9.2763 6.8355s4.1785-2.6781 11.25-1.7988c6.7501 0.83945 6.7501 7.675 6.7501 7.675 0.59211 7.9148-7.9342 11.872-7.9342 11.872 13.974 0.71953 18.395-7.5549 18.74-8.4245-0.34543 4.1873-2.3388 6.8055-2.3388 6.8055 11.842-8.6943 5.5461-17.848 5.5461-17.848 2.842 1.1192 3.9868 3.7575 3.9868 3.7575s-1.6579-9.7136-10.184-13.791c-2.3132-1.1062-4.5069-1.5091-6.4762-1.5091-5.2895 0-9.708 4.747-10.063 6.4259z"/>
  <path id="path-9" d="m0.184 19.762c-0.11883 0.060484-0.184 0.090607-0.184 0.090607 12.219 0.62684 17.138-5.5948 18.414-7.7511 0.074167-0.20357 0.13684-0.40916 0.18743-0.61632 0.67142-2.7493-0.23696-6.4548-1.6587-8.3674-0.039453 3.0681-0.11848 3.2274-0.11848 3.2274 0-2.0321-2.6065-5.14-5.213-6.3353 3.9156 14.266-9.2432 19.062-11.427 19.752"/>
  <path id="path-11" d="m10.84 1.7756c-0.60327-0.35113-3.877-2.6482-10.761-0.72224l17.486 5.9384s-1.6616-4.3334-7.9913-6.9816c0.67258 0.62197 1.0483 1.1134 1.2659 1.7655"/>
  <linearGradient id="linearGradient-13" x1="69.74%" x2="77.404%" y1="50%" y2="35.92%">
   <stop stop-opacity="0" offset="0"/>
   <stop offset="1"/>
  </linearGradient>
 </defs>
 <g fill="none" fill-rule="evenodd">
  <g transform="translate(-254 -311)">
   <g id="shapes" transform="translate(254 311)">
    <path d="m12.174 11.274s3.9592 1.0224 2.6238 6.3914c-1.2007 4.827 1.2665 5.9653 2.6682 6.8383 0.26429 0.16452 0.51403 0.27755 0.72576 0.33427 0 0 5.9002-10.972-6.0178-13.564" fill="#fff"/>
    <g transform="translate(11.826 10.922)">
     <mask id="mask-2" fill="white">
      <use xlink:href="#path-1"/>
     </mask>
     <path d="m2.9088 7.0462c-1.2007 4.7644 1.858 6.0841 2.557 6.364 0.26429 0.16252 0.51403 0.27395 0.72589 0.32993 0 0 5.9002-10.829-6.0178-13.388 0 0 4.1347 1.2018 2.7991 6.5012l-0.064239 0.19275z" fill="url(#linearGradient-3)" mask="url(#mask-2)"/>
    </g>
    <mask id="mask-5" fill="white">
     <use xlink:href="#path-4"/>
    </mask>
    <path d="m11.25 2.2802c-1.3157-0.32077-1.9736-0.48116-1.9736-0.48116s0.35526 3.0079 0 4.6868c-7.4605 2.6383-9.2763 6.8355-9.2763 6.8355s4.1785-2.6781 11.25-1.7988c6.7501 0.83945 6.7501 7.675 6.7501 7.675 0.019658 0.26275 0.02925 0.52118 0.029487 0.77529 0.0058027 7.3979-7.9637 11.097-7.9637 11.097 13.974 0.71953 18.395-7.5549 18.74-8.4245-0.34543 4.1873-2.3388 6.8055-2.3388 6.8055 5.736-4.2113 7.2165-8.5305 7.2182-11.865 0.0017763-3.5497-1.6721-5.9833-1.6721-5.9833 2.842 1.1192 3.9868 3.7575 3.9868 3.7575s-1.6579-9.7136-10.184-13.791c-0.016105-0.007675-0.031737-0.01511-0.047961-0.022785-0.020132-0.0095937-0.040263-0.019067-0.060395-0.028541-2.2731-1.0673-4.4294-1.4578-6.3679-1.4578-0.36284 0-0.71787 0.013671-1.0648 0.039214-4.7104 0.34621-7.0249 2.181-7.0249 2.181zm1.0955 3.7859c0-0.34765 0.27841-0.62959 0.62171-0.62959 0.3433 0 0.62171 0.28193 0.62171 0.62959 0 0.34777-0.27841 0.62959-0.62171 0.62959-0.3433 0-0.62171-0.28181-0.62171-0.62959" fill="url(#linearGradient-6)" mask="url(#mask-5)"/>
    <mask id="mask-8" fill="white">
     <use xlink:href="#path-7"/>
    </mask>
    <path d="m9.9474 31.07s15.987-4.3172 11.724-19.907c2.6053 1.1992 5.2105 4.3172 5.2105 6.3558 0 0 0.078987-0.15985 0.11842-3.2379 1.4211 1.9187 2.329 5.6363 1.6579 8.3945-1.2649 5.1982-10.066 9.3538-18.711 8.3945" fill="#E3E3E3" mask="url(#mask-8)"/>
    <g transform="translate(10.087 11.274)">
     <mask id="mask-10" fill="white">
      <use xlink:href="#path-9"/>
     </mask>
     <path d="m0.184 19.762c-0.11883 0.060484-0.184 0.090607-0.184 0.090607 12.219 0.62684 17.138-5.5948 18.414-7.7511 0.074167-0.20357 0.13684-0.40916 0.18743-0.61632 0.67142-2.7493-0.23696-6.4548-1.6587-8.3674-0.039453 3.0681-0.11848 3.2274-0.11848 3.2274 0-2.0321-2.6065-5.14-5.213-6.3353 3.9156 14.266-9.2432 19.062-11.427 19.752" fill="#E3E3E3" mask="url(#mask-10)"/>
    </g>
    <g transform="translate(14.609 4.58)">
     <mask id="mask-12" fill="white">
      <use xlink:href="#path-11"/>
     </mask>
     <path d="m10.84 1.7756c-0.60327-0.35113-3.877-2.6482-10.761-0.72224l17.486 5.9384s-1.6616-4.3334-7.9913-6.9816c0.67258 0.62197 1.0483 1.1134 1.2659 1.7655" fill="url(#linearGradient-13)" mask="url(#mask-12)"/>
    </g>
   </g>
  </g>
 </g>
 <metadata>
  <rdf:RDF>
   <cc:Work rdf:about="">
    <dc:title>Group</dc:title>
   </cc:Work>
  </rdf:RDF>
 </metadata>
</svg>
